<svg width="78" height="78" viewBox="0 0 78 78" fill="none" xmlns="http://www.w3.org/2000/svg">
<path d="M39 0C17.496 0 0 17.496 0 39C0 60.504 17.496 78 39 78C60.504 78 78 60.504 78 39C78 17.496 60.504 0 39 0ZM28.998 12H48.9961C58.3711 12 66 19.626 66 28.998V48.9961C66 58.3711 58.374 66 49.002 66H29.0039C19.6289 66 12 58.374 12 49.002V29.0039C12 19.6289 19.626 12 28.998 12ZM28.998 18C22.935 18 18 22.9379 18 29.0039V49.002C18 55.065 22.9379 60 29.0039 60H49.002C55.065 60 60 55.0621 60 48.9961V28.998C60 22.935 55.0621 18 48.9961 18H28.998ZM53.0039 22.998C54.1079 22.998 55.002 23.8921 55.002 24.9961C55.002 26.1001 54.1079 27 53.0039 27C51.8999 27 51 26.1001 51 24.9961C51 23.8921 51.8999 22.998 53.0039 22.998ZM39 24C47.271 24 54 30.729 54 39C54 47.271 47.271 54 39 54C30.729 54 24 47.271 24 39C24 30.729 30.729 24 39 24ZM39 30C36.6131 30 34.3239 30.9482 32.636 32.636C30.9482 34.3239 30 36.6131 30 39C30 41.3869 30.9482 43.6761 32.636 45.364C34.3239 47.0518 36.6131 48 39 48C41.3869 48 43.6761 47.0518 45.364 45.364C47.0518 43.6761 48 41.3869 48 39C48 36.6131 47.0518 34.3239 45.364 32.636C43.6761 30.9482 41.3869 30 39 30Z" fill="black"/>
</svg>
